<mxfile host="app.diagrams.net" agent="Mozilla/5.0 (Macintosh; Intel Mac OS X 10_15_7) AppleWebKit/537.36 (KHTML, like Gecko) Chrome/126.0.0.0 Safari/537.36" version="24.7.10">
  <diagram name="Page-1" id="2DVzN-AJcgIJ51dVuRu4">
    <mxGraphModel dx="984" dy="626" grid="1" gridSize="10" guides="1" tooltips="1" connect="1" arrows="1" fold="1" page="1" pageScale="1" pageWidth="850" pageHeight="1100" math="0" shadow="0">
      <root>
        <mxCell id="0" />
        <mxCell id="1" parent="0" />
        <mxCell id="fUfwtxYm52j4WDYheay--1" value="&lt;div&gt;BAND&lt;/div&gt;&lt;div&gt;&lt;u&gt;&lt;b&gt;UNIQUE CODE&lt;/b&gt;&lt;/u&gt;&lt;/div&gt;&lt;div&gt;&lt;b&gt;Band Name&lt;/b&gt;&lt;/div&gt;&lt;div&gt;&lt;b&gt;Year Founded&lt;/b&gt;&lt;/div&gt;&lt;div&gt;&lt;b&gt;Country&lt;/b&gt;&lt;/div&gt;&lt;div&gt;{Genre}&lt;/div&gt;" style="whiteSpace=wrap;html=1;align=center;" parent="1" vertex="1">
          <mxGeometry x="80" y="50" width="120" height="140" as="geometry" />
        </mxCell>
        <mxCell id="fUfwtxYm52j4WDYheay--2" value="&lt;div&gt;ALBUMS&lt;/div&gt;&lt;div&gt;&lt;u&gt;&lt;b&gt;UNIQUE ID&lt;/b&gt;&lt;/u&gt;&lt;/div&gt;&lt;div&gt;&lt;b&gt;Album Title&lt;/b&gt;&lt;/div&gt;&lt;div&gt;&lt;span style=&quot;background-color: initial;&quot;&gt;&lt;b&gt;Release Date&lt;/b&gt;&lt;/span&gt;&lt;/div&gt;&lt;div&gt;&lt;b&gt;[Total Length (Minutes, Seconds)]&lt;/b&gt;&lt;/div&gt;&lt;div&gt;Total Sales&lt;/div&gt;&lt;div&gt;Highest Billboard Rank Reached&lt;/div&gt;" style="whiteSpace=wrap;html=1;align=center;" parent="1" vertex="1">
          <mxGeometry x="320" y="50" width="210" height="140" as="geometry" />
        </mxCell>
        <mxCell id="fUfwtxYm52j4WDYheay--3" value="&lt;div&gt;TRACKS&lt;/div&gt;&lt;div&gt;&lt;span style=&quot;border-bottom: 3px double;margin-bottom: 5px;&quot;&gt;&lt;b&gt;Track Number&lt;/b&gt;&lt;/span&gt;&lt;/div&gt;&lt;div&gt;&lt;b&gt;Track Title&lt;br&gt;&lt;/b&gt;&lt;/div&gt;&lt;div&gt;&lt;b&gt;Duration (Minutes, Seconds)&lt;/b&gt;&lt;/div&gt;&lt;div&gt;{Remix/Alternate Of}&lt;/div&gt;" style="shape=ext;margin=3;double=1;whiteSpace=wrap;html=1;align=center;" parent="1" vertex="1">
          <mxGeometry x="45" y="330" width="190" height="140" as="geometry" />
        </mxCell>
        <mxCell id="fUfwtxYm52j4WDYheay--5" value="" style="edgeStyle=entityRelationEdgeStyle;fontSize=12;html=1;endArrow=ERzeroToMany;startArrow=ERmandOne;rounded=0;entryX=0;entryY=0.5;entryDx=0;entryDy=0;exitX=1;exitY=0.5;exitDx=0;exitDy=0;" parent="1" source="fUfwtxYm52j4WDYheay--1" target="fUfwtxYm52j4WDYheay--2" edge="1">
          <mxGeometry width="100" height="100" relative="1" as="geometry">
            <mxPoint x="190" y="250" as="sourcePoint" />
            <mxPoint x="290" y="150" as="targetPoint" />
          </mxGeometry>
        </mxCell>
        <mxCell id="fUfwtxYm52j4WDYheay--10" value="" style="edgeStyle=entityRelationEdgeStyle;fontSize=12;html=1;endArrow=ERoneToMany;startArrow=ERmandOne;rounded=0;endFill=0;entryX=0;entryY=1;entryDx=0;entryDy=0;exitX=0.465;exitY=0.001;exitDx=0;exitDy=0;exitPerimeter=0;" parent="1" source="fUfwtxYm52j4WDYheay--3" target="fUfwtxYm52j4WDYheay--2" edge="1">
          <mxGeometry width="100" height="100" relative="1" as="geometry">
            <mxPoint x="170" y="310" as="sourcePoint" />
            <mxPoint x="490" y="240" as="targetPoint" />
            <Array as="points">
              <mxPoint x="180" y="320" />
              <mxPoint x="130" y="280" />
            </Array>
          </mxGeometry>
        </mxCell>
        <mxCell id="fUfwtxYm52j4WDYheay--11" value="Min 6" style="text;html=1;strokeColor=none;fillColor=none;align=center;verticalAlign=middle;whiteSpace=wrap;rounded=0;" parent="1" vertex="1">
          <mxGeometry x="130" y="290" width="60" height="30" as="geometry" />
        </mxCell>
        <mxCell id="fUfwtxYm52j4WDYheay--12" value="Belongs To" style="text;html=1;strokeColor=none;fillColor=none;align=center;verticalAlign=middle;whiteSpace=wrap;rounded=0;" parent="1" vertex="1">
          <mxGeometry x="230" y="90" width="60" height="30" as="geometry" />
        </mxCell>
        <mxCell id="fUfwtxYm52j4WDYheay--13" value="Contains" style="text;html=1;strokeColor=none;fillColor=none;align=center;verticalAlign=middle;whiteSpace=wrap;rounded=0;" parent="1" vertex="1">
          <mxGeometry x="190" y="220" width="60" height="30" as="geometry" />
        </mxCell>
        <mxCell id="fUfwtxYm52j4WDYheay--14" value="" style="edgeStyle=entityRelationEdgeStyle;fontSize=12;html=1;endArrow=ERzeroToMany;startArrow=ERzeroToOne;rounded=0;" parent="1" target="fUfwtxYm52j4WDYheay--3" edge="1">
          <mxGeometry width="100" height="100" relative="1" as="geometry">
            <mxPoint x="240" y="450" as="sourcePoint" />
            <mxPoint x="370" y="340" as="targetPoint" />
          </mxGeometry>
        </mxCell>
      </root>
    </mxGraphModel>
  </diagram>
</mxfile>
